<?xml version="1.0" standalone="no"?>
<!DOCTYPE svg PUBLIC "-//W3C//DTD SVG 20010904//EN"
 "http://www.w3.org/TR/2001/REC-SVG-20010904/DTD/svg10.dtd">
<svg version="1.0" xmlns="http://www.w3.org/2000/svg"
 width="1600.000000pt" height="704.000000pt" viewBox="0 0 1600.000000 704.000000"
 preserveAspectRatio="xMidYMid meet">
<metadata>
Created by potrace 1.16, written by Peter Selinger 2001-2019
</metadata>
<g transform="translate(0.000000,704.000000) scale(0.100000,-0.100000)"
fill="#000000" stroke="none">
<path d="M3290 7029 c-1362 -90 -2550 -959 -3048 -2229 -300 -768 -318 -1641
-50 -2420 270 -782 809 -1448 1518 -1872 420 -252 850 -401 1365 -474 173 -24
597 -30 782 -10 425 45 757 135 1133 306 817 371 1487 1087 1809 1931 104 274
165 514 207 824 25 183 26 683 1 870 -54 404 -162 763 -332 1110 -181 370
-394 663 -697 962 -207 204 -378 339 -607 481 -509 313 -1049 483 -1656 522
-178 11 -242 11 -425 -1z m679 -63 c276 -40 492 -93 733 -180 713 -259 1320
-743 1741 -1391 273 -422 454 -921 524 -1450 24 -184 24 -667 0 -850 -84 -629
-312 -1184 -692 -1685 -520 -685 -1318 -1168 -2160 -1309 -236 -39 -325 -46
-610 -45 -304 0 -417 11 -685 64 -814 162 -1562 634 -2073 1307 -296 392 -524
884 -622 1343 -82 386 -100 742 -59 1130 101 950 596 1818 1369 2400 519 391
1132 624 1795 684 114 10 629 -3 739 -18z"/>
<path d="M3350 6823 c-369 -22 -738 -103 -1045 -228 -184 -75 -289 -125 -413
-196 -800 -460 -1369 -1209 -1582 -2083 -76 -313 -99 -522 -95 -846 10 -682
214 -1305 613 -1869 360 -509 904 -930 1505 -1166 268 -104 625 -185 932 -209
86 -7 455 -9 495 -2 14 2 59 7 100 11 177 14 470 76 671 141 755 242 1413 767
1827 1457 410 682 554 1499 406 2305 -94 515 -328 1025 -662 1441 -230 287
-452 489 -763 696 -447 299 -952 479 -1494 535 -105 11 -400 19 -495 13z m548
-158 c459 -58 921 -221 1305 -463 658 -413 1151 -1074 1363 -1825 245 -869
101 -1821 -389 -2570 -130 -199 -356 -477 -412 -507 -31 -16 -69 -6 -88 23 -8
13 -45 122 -82 243 -80 264 -223 709 -311 967 -76 223 -79 259 -31 304 17 16
62 46 99 66 373 205 554 554 510 981 -26 244 -107 428 -258 579 -80 81 -163
138 -306 210 -184 93 -208 132 -208 342 -2 767 -511 1400 -1254 1556 -145 31
-419 35 -567 9 -640 -114 -1133 -594 -1270 -1240 -33 -152 -33 -438 0 -590 62
-294 189 -545 380 -754 45 -48 84 -99 87 -113 13 -48 -30 -69 -417 -203 -266
-93 -359 -137 -455 -218 -93 -79 -163 -174 -243 -332 -131 -257 -166 -387
-306 -1135 -39 -211 -46 -225 -110 -225 -44 0 -82 37 -141 136 -219 372 -361
783 -420 1219 -25 179 -25 606 -1 788 176 1319 1127 2380 2407 2687 192 46
296 61 560 84 91 8 438 -4 558 -19z m-118 -179 c212 -38 423 -126 596 -249
242 -171 446 -443 539 -722 50 -149 66 -241 72 -420 5 -162 4 -172 -17 -218
-51 -109 -188 -162 -277 -107 -40 24 -47 51 -39 148 26 305 17 414 -43 561
-128 310 -444 501 -786 476 -55 -4 -116 -6 -135 -4 -19 2 -82 4 -140 3 -84 0
-117 -5 -162 -23 -123 -48 -240 -146 -355 -297 -34 -44 -129 -161 -212 -259
-87 -103 -162 -202 -177 -233 -26 -56 -65 -209 -84 -337 -19 -122 13 -247 122
-480 51 -108 62 -142 67 -201 7 -80 22 -106 60 -102 22 3 30 15 63 98 78 203
89 255 98 485 9 230 23 300 67 341 30 27 59 30 88 8 18 -13 20 -25 18 -114 -3
-115 -22 -215 -57 -304 -42 -106 -56 -174 -56 -282 0 -167 39 -268 181 -464
129 -180 225 -330 249 -389 26 -66 28 -132 6 -166 -25 -38 -92 -67 -166 -73
-196 -13 -600 178 -822 388 -50 48 -58 61 -58 91 0 48 22 73 124 144 62 42 86
64 86 80 0 13 -30 48 -85 98 -429 393 -585 986 -404 1540 112 342 367 650 682
821 170 93 329 145 516 171 118 16 327 12 441 -9z m135 -870 c56 -26 119 -89
243 -243 46 -57 96 -110 112 -118 42 -22 87 -18 148 10 134 62 163 16 136
-210 -40 -325 -41 -327 -206 -335 -75 -4 -123 -11 -143 -22 -35 -19 -70 -76
-80 -133 -4 -22 -15 -53 -25 -70 -10 -16 -24 -52 -31 -80 -17 -72 -66 -160
-105 -190 -55 -42 -106 -54 -242 -59 -96 -3 -148 -10 -212 -29 -121 -35 -145
-40 -191 -32 -91 15 -140 93 -147 234 -9 167 12 252 172 693 31 86 49 158 57
220 19 153 59 216 191 304 131 88 227 105 323 60z m1195 -965 c145 -42 310
-139 416 -245 96 -95 185 -250 226 -391 20 -68 23 -103 23 -235 0 -131 -4
-167 -23 -234 -49 -170 -135 -317 -254 -432 -130 -126 -259 -192 -398 -201
-64 -5 -78 -3 -99 14 -34 28 -23 45 49 84 156 83 234 262 247 569 7 169 -10
268 -69 389 -33 69 -56 100 -129 173 -83 82 -119 103 -134 78 -3 -5 -7 -33 -9
-62 -6 -116 -85 -186 -238 -209 -40 -6 -79 -13 -86 -15 -8 -2 -3 -22 20 -65
l32 -61 -17 -48 c-9 -26 -17 -54 -17 -62 0 -24 31 -45 113 -73 84 -30 137 -70
137 -105 0 -32 -17 -59 -76 -122 -30 -31 -54 -63 -54 -71 0 -8 11 -22 25 -31
14 -9 25 -22 25 -29 0 -17 -47 -61 -88 -81 -103 -52 -96 -103 21 -170 26 -15
47 -31 47 -36 0 -5 -33 -26 -72 -46 -76 -38 -224 -136 -245 -162 -7 -9 -13
-24 -13 -35 0 -29 42 -14 109 38 66 52 149 91 223 107 133 28 243 -54 341
-253 152 -309 292 -880 328 -1340 13 -168 10 -198 -30 -261 -63 -99 -522 -365
-815 -472 -429 -156 -834 -218 -1276 -194 -288 15 -531 60 -807 149 -128 41
-341 124 -355 138 -5 4 9 13 30 20 95 34 172 120 212 236 50 146 20 180 -182
206 -110 14 -230 1 -362 -41 -118 -37 -156 -44 -156 -31 0 11 32 33 134 92 89
51 168 134 210 220 58 118 66 178 66 472 0 382 -23 562 -101 806 -16 52 -29
104 -27 115 5 32 53 -48 82 -138 70 -215 105 -452 112 -766 5 -218 14 -290 35
-290 17 0 29 43 69 255 23 121 47 233 54 250 l13 30 8 -49 c8 -51 -31 -271
-101 -575 -19 -79 -34 -152 -34 -163 0 -64 67 -108 165 -108 46 0 60 4 87 29
l33 29 6 164 c7 176 23 251 79 374 58 129 177 276 290 359 128 95 288 156 474
180 127 17 147 96 68 271 -72 159 -77 234 -23 351 33 70 127 173 157 173 29 0
56 -34 94 -118 40 -87 65 -100 110 -57 65 62 75 5 35 -190 -30 -148 -32 -225
-4 -285 48 -107 117 -157 202 -147 27 4 55 11 62 17 8 7 14 43 17 98 4 104 25
155 117 276 74 97 87 132 68 178 -23 54 -68 94 -135 118 -48 17 -74 35 -107
73 -59 65 -106 164 -112 236 -5 51 -2 63 21 98 43 65 47 94 46 352 -1 288 5
317 79 391 79 79 171 122 387 179 63 17 78 40 85 136 13 170 76 207 339 201
111 -3 163 -9 220 -25z"/>
<path d="M4620 4305 c-5 -14 -10 -44 -10 -65 0 -52 -17 -60 -142 -71 -232 -20
-309 -37 -316 -71 -5 -25 23 -26 138 -4 111 21 159 23 227 11 78 -14 106 -1
198 91 47 46 85 91 85 98 0 18 -16 23 -102 32 -67 6 -68 6 -78 -21z"/>
<path d="M3292 2179 c-113 -26 -122 -32 -122 -77 0 -37 47 -145 89 -207 20
-29 28 -75 14 -89 -4 -3 -32 21 -62 54 -32 34 -68 62 -83 66 -35 8 -35 -3 -3
-47 42 -57 85 -152 85 -187 0 -67 -62 -51 -114 30 -39 61 -73 95 -100 100 -33
6 -28 -17 17 -78 65 -86 81 -122 81 -182 1 -49 -2 -56 -36 -88 -58 -52 -78
-45 -83 29 -2 22 -12 51 -22 66 -26 35 -103 93 -117 88 -6 -2 -20 -19 -31 -38
-32 -54 -26 -134 18 -261 20 -58 37 -122 37 -142 0 -20 3 -36 8 -36 4 1 23 21
42 46 44 57 143 142 175 150 37 9 55 -2 55 -34 0 -40 -80 -193 -189 -362 -101
-156 -136 -234 -126 -282 12 -51 29 -55 290 -61 372 -9 367 -12 489 237 144
292 163 303 474 245 119 -22 151 -20 182 11 16 16 20 34 20 85 l0 65 93 101
c134 146 225 255 247 300 11 21 18 39 15 39 -20 0 -90 -39 -187 -106 -191
-131 -298 -168 -478 -168 -171 0 -279 38 -355 127 -62 72 -72 133 -52 311 1
10 -5 23 -15 29 -13 9 -24 4 -57 -26 -23 -20 -45 -37 -49 -37 -5 0 -17 9 -28
21 -17 19 -19 38 -19 175 0 97 -4 154 -10 153 -5 0 -48 -9 -93 -20z"/>
<path d="M7898 6104 c-18 -17 -5 -33 31 -39 71 -12 70 -6 12 -313 -75 -391
-69 -373 -143 -387 -20 -4 -39 -13 -42 -21 -5 -12 20 -14 161 -12 122 2 167 6
171 16 2 7 -5 12 -16 12 -33 0 -80 21 -87 38 -3 9 4 72 16 140 l23 123 40 -8
c230 -45 402 90 372 292 -9 57 -53 110 -116 139 -39 17 -70 21 -230 24 -102 2
-188 0 -192 -4z m368 -63 c70 -43 84 -183 27 -265 -40 -58 -92 -81 -175 -80
-38 0 -71 4 -75 7 -10 10 46 308 63 335 12 19 23 22 72 22 38 0 67 -6 88 -19z"/>
<path d="M8734 5861 c-108 -26 -197 -103 -252 -218 -31 -66 -37 -89 -40 -162
-4 -100 14 -149 61 -166 42 -14 120 31 202 116 37 38 68 69 70 69 1 0 -2 -20
-7 -44 -13 -62 -7 -127 14 -140 13 -7 26 -6 53 7 43 20 125 94 125 113 0 25
-21 25 -51 0 -30 -26 -59 -34 -59 -17 0 16 40 212 66 320 13 57 23 106 21 107
-7 7 -111 24 -141 23 -17 -1 -45 -4 -62 -8z m79 -60 l25 -10 -20 -77 c-27
-109 -60 -167 -138 -246 -56 -58 -72 -69 -95 -66 -36 4 -48 40 -40 122 13 126
61 226 129 267 33 20 99 25 139 10z"/>
<path d="M9160 5850 c-53 -28 -117 -97 -103 -111 8 -8 20 -4 46 15 18 14 37
26 40 26 15 0 5 -61 -40 -256 -26 -112 -45 -206 -42 -208 3 -3 25 1 49 8 30 9
46 19 48 32 14 79 57 224 81 272 33 64 96 142 116 142 7 0 19 -10 28 -22 18
-27 38 -19 71 25 25 34 13 77 -26 91 -36 13 -94 -27 -153 -106 l-44 -58 6 70
c8 99 -9 117 -77 80z"/>
<path d="M9609 5841 c-63 -40 -100 -83 -89 -101 7 -12 15 -10 47 13 l38 27 3
-29 c2 -16 -18 -120 -43 -231 -26 -111 -45 -204 -43 -206 3 -2 24 2 49 9 l44
13 30 119 c17 66 41 142 54 168 28 58 97 147 113 147 6 0 21 -9 33 -20 27 -25
50 -18 70 21 22 41 18 66 -10 85 -21 14 -30 14 -55 4 -29 -12 -111 -93 -141
-140 -16 -24 -16 -21 -11 54 4 60 2 80 -9 87 -22 14 -32 11 -80 -20z"/>
<path d="M10193 5855 c-134 -41 -218 -140 -243 -288 -27 -155 38 -257 166
-257 47 0 138 43 186 88 72 67 111 153 116 256 6 111 -17 168 -80 196 -50 23
-86 24 -145 5z m110 -96 c22 -41 18 -152 -8 -236 -33 -109 -119 -181 -182
-151 -48 23 -65 70 -60 168 6 103 35 188 83 235 56 56 133 49 167 -16z"/>
<path d="M10816 5859 c-60 -14 -153 -68 -192 -112 -79 -87 -131 -261 -105
-354 14 -51 45 -83 80 -83 46 0 131 48 197 111 39 39 64 56 64 46 0 -41 -70
-351 -85 -373 -9 -14 -29 -27 -46 -31 -16 -3 -35 -15 -41 -26 -10 -20 -9 -20
73 -14 46 4 112 7 147 7 55 0 62 2 62 20 0 14 -7 20 -21 20 -36 0 -59 19 -59
49 0 31 90 511 120 636 10 44 16 83 14 87 -6 9 -99 28 -137 27 -18 -1 -49 -5
-71 -10z m100 -62 c4 -3 -1 -47 -11 -98 -21 -105 -63 -178 -145 -252 -64 -57
-98 -67 -123 -35 -17 20 -19 35 -14 108 12 193 94 296 229 287 32 -2 61 -6 64
-10z"/>
<path d="M11260 5859 c-46 -19 -130 -89 -130 -109 0 -27 16 -25 52 6 17 14 34
21 39 17 4 -4 -10 -80 -32 -167 -45 -182 -49 -246 -19 -276 26 -26 44 -25 108
5 35 16 80 52 131 104 l77 80 -15 -76 c-25 -129 3 -158 98 -101 63 38 104 87
92 107 -7 11 -16 8 -43 -13 -19 -14 -41 -26 -48 -26 -19 0 -8 74 43 283 24 97
42 177 39 177 -2 0 -25 -7 -51 -17 l-47 -16 -16 -77 c-24 -118 -60 -184 -153
-277 -60 -62 -87 -83 -107 -83 -44 0 -43 21 6 216 42 170 50 222 36 239 -14
17 -25 18 -60 4z"/>
<path d="M11895 5854 c-58 -31 -125 -88 -125 -106 0 -23 16 -23 47 2 32 25 56
26 49 3 -31 -104 -86 -352 -86 -388 0 -69 34 -73 123 -14 55 36 82 71 73 95
-6 15 -9 15 -29 -3 -12 -11 -32 -26 -44 -32 -20 -10 -23 -9 -23 9 0 11 20 102
46 202 25 100 44 195 42 212 -4 37 -28 44 -73 20z"/>
<path d="M12349 5851 c-109 -35 -174 -96 -231 -217 -33 -70 -47 -169 -34 -239
9 -44 46 -85 77 -85 43 0 111 45 184 122 68 71 74 75 67 45 -4 -18 -7 -58 -7
-91 0 -74 16 -89 70 -63 43 20 125 94 125 113 0 25 -21 25 -51 0 -45 -38 -61
-35 -53 12 7 45 72 348 80 378 5 19 -1 22 -52 32 -76 16 -108 14 -175 -7z
m120 -57 c12 -12 -19 -134 -50 -200 -32 -66 -157 -194 -192 -194 -20 0 -28 7
-37 35 -22 67 14 235 65 301 44 58 81 76 148 71 31 -2 61 -8 66 -13z"/>
<path d="M7747 4693 c-4 -3 -7 -15 -7 -25 0 -17 132 -18 4125 -18 l4125 0 0
25 0 25 -4118 0 c-2265 0 -4122 -3 -4125 -7z"/>
<path d="M15562 4413 c-85 -127 -184 -284 -180 -286 2 -1 18 -15 36 -32 l33
-29 184 184 c164 164 185 188 185 217 l0 33 -100 0 -99 0 -59 -87z"/>
<path d="M8295 4420 c-64 -12 -160 -47 -206 -75 -56 -36 -126 -121 -150 -183
-17 -44 -22 -79 -23 -152 -1 -83 2 -102 25 -151 52 -110 136 -182 340 -289
155 -82 230 -131 265 -173 64 -75 86 -184 60 -288 -32 -123 -106 -180 -243
-187 -181 -10 -279 55 -330 215 l-17 53 -58 0 -58 0 0 -159 0 -158 103 -22
c271 -56 509 -43 642 35 126 73 197 229 182 403 -16 187 -109 289 -407 446
-171 90 -229 136 -267 213 -23 46 -28 70 -28 127 1 117 52 195 152 231 47 16
178 18 224 3 76 -26 134 -92 169 -193 l17 -51 56 -3 57 -3 0 160 0 160 -37 10
c-126 33 -370 49 -468 31z"/>
<path d="M12057 4404 c-21 -21 -4 -46 47 -68 92 -41 87 11 84 -881 l-3 -770
-28 -57 c-23 -46 -39 -64 -85 -93 -31 -20 -67 -38 -80 -41 -24 -7 -24 -13 5
-81 17 -41 20 -40 148 22 133 64 204 143 246 270 10 31 14 211 19 795 4 623 7
760 19 783 9 17 35 37 68 53 44 20 54 29 51 47 -3 22 -5 22 -244 25 -132 1
-243 -1 -247 -4z"/>
<path d="M9454 3950 c-78 -14 -200 -56 -284 -98 l-75 -37 0 -75 0 -75 76 -3
76 -3 18 46 c23 62 80 120 130 134 91 25 192 4 242 -50 40 -44 55 -98 61 -216
l5 -112 -34 -5 c-19 -3 -65 -8 -104 -11 -253 -22 -441 -109 -501 -231 -50
-102 -36 -229 34 -306 44 -49 90 -73 166 -87 126 -23 257 19 381 124 35 30 67
55 70 55 4 0 5 -37 4 -82 l-2 -83 156 -3 157 -3 0 30 c0 25 -7 32 -47 52 -78
39 -77 33 -83 459 -5 367 -6 376 -29 427 -28 63 -94 127 -147 143 -52 15 -207
21 -270 10z m246 -694 c0 -94 -3 -109 -28 -157 -31 -60 -101 -120 -162 -138
-57 -17 -150 -14 -190 7 -54 27 -80 74 -80 146 0 71 24 120 80 161 59 43 204
79 343 84 l37 1 0 -104z"/>
<path d="M10809 3947 c-66 -19 -136 -62 -205 -129 -33 -32 -65 -58 -70 -58 -6
0 -8 38 -6 95 l4 95 -43 0 c-24 0 -102 -3 -172 -7 l-128 -6 3 -30 c2 -26 9
-32 37 -40 52 -13 80 -36 92 -76 7 -24 9 -169 7 -426 -3 -439 -2 -428 -79
-459 -33 -14 -39 -20 -39 -46 l0 -30 225 0 225 0 0 30 c0 25 -6 32 -44 49 -80
35 -81 41 -81 391 0 346 -1 343 83 425 61 60 118 86 187 86 79 0 128 -29 163
-100 l27 -56 3 -326 c4 -380 3 -387 -73 -420 -39 -17 -45 -24 -45 -49 l0 -30
225 0 225 0 0 29 c0 24 -7 32 -47 52 -73 36 -74 43 -74 321 1 287 -11 485 -34
549 -23 65 -75 122 -135 148 -64 27 -169 36 -231 18z"/>
<path d="M13190 3950 c-196 -35 -331 -168 -387 -380 -23 -90 -23 -310 0 -400
69 -261 267 -385 555 -350 125 16 205 51 278 125 104 103 148 217 160 410 12
191 -35 356 -132 464 -99 110 -292 163 -474 131z m199 -109 c47 -25 108 -91
132 -146 63 -142 74 -404 24 -572 -20 -68 -71 -141 -123 -177 -34 -24 -56 -31
-108 -34 -85 -6 -140 15 -194 74 -80 87 -113 203 -113 404 -1 76 5 161 12 195
28 126 89 222 166 256 55 25 154 25 204 0z"/>
<path d="M14353 3950 c-172 -31 -284 -128 -300 -260 -20 -173 56 -255 357
-386 36 -15 88 -42 116 -60 109 -68 126 -210 35 -287 -40 -33 -89 -47 -171
-47 -116 0 -194 55 -240 168 -13 32 -14 33 -69 30 l-56 -3 -3 -114 c-1 -63 1
-118 6 -123 12 -12 151 -37 266 -48 118 -12 250 1 329 30 73 27 130 79 163
147 37 74 40 195 7 258 -45 87 -105 131 -300 221 -206 95 -243 129 -243 225 0
70 24 110 84 139 39 19 59 21 130 19 74 -4 89 -8 127 -34 27 -19 54 -51 73
-87 l31 -58 53 0 53 0 -3 123 -3 122 -70 12 c-96 17 -309 24 -372 13z"/>
<path d="M15420 3943 c-113 -31 -197 -90 -259 -182 -82 -121 -119 -277 -107
-445 24 -332 174 -495 461 -499 151 -2 256 36 370 132 80 68 86 83 50 121 -16
17 -33 30 -38 30 -5 0 -30 -18 -54 -41 -25 -22 -70 -53 -101 -67 -50 -24 -69
-27 -162 -27 -118 0 -158 14 -216 77 -59 62 -85 136 -100 291 l-6 67 367 0
368 0 -6 91 c-17 232 -104 383 -254 439 -81 30 -227 36 -313 13z m233 -112
c61 -37 117 -182 117 -303 l0 -28 -250 0 c-285 0 -259 -11 -236 101 32 149
108 238 219 258 54 9 106 0 150 -28z"/>
<path d="M9468 2393 l-108 -4 0 -34 c0 -29 4 -35 20 -35 40 0 89 -28 107 -62
17 -31 18 -82 23 -773 l5 -740 37 -9 c34 -9 41 -7 79 23 l41 33 81 -27 c108
-37 292 -47 383 -20 139 40 224 109 279 228 51 109 69 213 62 376 -5 146 -21
219 -66 316 -99 211 -356 269 -559 125 -37 -26 -80 -62 -96 -79 -17 -17 -33
-31 -38 -31 -4 0 -8 162 -8 360 l0 360 -67 -2 c-38 -1 -116 -4 -175 -5z m643
-693 c99 -51 149 -198 149 -437 -1 -333 -135 -489 -373 -434 -62 15 -114 57
-144 120 -28 56 -28 57 -31 296 -4 270 0 300 54 363 97 113 232 149 345 92z"/>
<path d="M8386 2324 c-219 -53 -386 -234 -453 -492 -44 -172 -43 -469 3 -648
17 -66 73 -192 104 -232 121 -157 260 -222 476 -222 336 0 554 190 631 551 25
117 25 431 1 541 -78 348 -279 519 -608 517 -52 0 -122 -7 -154 -15z m280
-119 c168 -76 264 -328 264 -697 0 -440 -151 -691 -407 -676 -180 12 -301 146
-356 394 -18 85 -21 131 -21 324 0 255 15 351 75 473 91 187 272 261 445 182z"/>
<path d="M11292 1851 c-68 -23 -151 -81 -206 -143 -24 -26 -47 -48 -51 -48 -5
0 -5 45 -1 100 l7 100 -78 0 c-43 0 -122 -3 -176 -7 l-98 -6 3 -30 c3 -25 10
-31 52 -45 30 -10 58 -28 70 -45 20 -28 21 -39 21 -425 0 -454 1 -447 -81
-483 -35 -16 -44 -25 -44 -44 l0 -25 225 0 c124 0 228 0 233 0 4 0 7 12 7 26
0 21 -7 28 -38 39 -51 17 -75 41 -87 84 -13 48 -13 575 0 623 13 45 61 110
112 151 29 23 51 31 92 35 65 5 96 -12 133 -75 l25 -44 62 3 61 3 0 135 0 135
-95 2 c-71 2 -108 -2 -148 -16z"/>
<path d="M12031 1855 c-175 -49 -299 -186 -348 -383 -23 -90 -22 -291 1 -387
56 -238 207 -355 456 -355 155 1 259 42 371 147 l70 66 -37 38 -37 38 -51 -46
c-28 -25 -76 -58 -106 -72 -48 -23 -68 -26 -160 -26 -122 0 -164 16 -224 86
-53 62 -78 136 -84 252 l-5 97 363 0 363 0 -6 98 c-18 300 -152 449 -412 458
-69 3 -117 -1 -154 -11z m217 -103 c67 -31 115 -133 128 -273 l7 -69 -249 2
-249 3 3 40 c4 63 38 166 71 216 63 94 186 129 289 81z"/>
<path d="M13396 1853 c-66 -20 -139 -69 -206 -137 -30 -31 -57 -56 -60 -56 -3
0 -4 45 -2 100 l4 100 -73 0 c-41 0 -118 -3 -172 -7 l-98 -6 3 -30 c3 -25 10
-31 53 -45 87 -29 86 -21 83 -489 l-3 -402 -29 -30 c-16 -16 -42 -33 -57 -36
-24 -5 -29 -12 -29 -35 0 -36 -3 -36 263 -32 l208 3 -3 25 c-2 21 -12 29 -53
42 -41 14 -53 24 -70 57 -19 37 -20 60 -20 335 0 256 2 300 17 332 44 98 130
168 204 168 61 0 90 -16 125 -72 l32 -49 61 3 61 3 3 115 c4 169 10 160 -101
159 -52 0 -114 -7 -141 -16z"/>
<path d="M14150 1859 c-144 -28 -285 -147 -338 -286 -53 -137 -65 -286 -37
-449 45 -261 205 -394 472 -394 114 0 179 13 263 53 172 81 261 261 261 527 1
310 -114 489 -352 545 -69 16 -197 18 -269 4z m221 -110 c62 -31 116 -102 145
-193 52 -160 43 -461 -18 -580 -54 -105 -128 -156 -227 -156 -170 1 -269 148
-287 424 -11 176 22 340 86 430 68 94 198 127 301 75z"/>
</g>
</svg>
